<svg width="40" height="40" viewBox="0 0 40 40" fill="none" xmlns="http://www.w3.org/2000/svg">
<circle cx="20" cy="20" r="20" fill="#53B175"/>
<path d="M15.6886 13.3713C15.4539 13.1142 15.3235 12.7759 15.3366 12.424C15.3366 12.0721 15.467 11.7473 15.7147 11.4901C15.9494 11.2465 16.2753 11.0977 16.6143 11.0977C16.9533 11.0977 17.2792 11.2195 17.5269 11.4631L24.9063 19.1232C25.0237 19.245 25.1149 19.3939 25.1801 19.5563C25.2453 19.7187 25.2844 19.8946 25.2844 20.0706C25.2844 20.2465 25.2453 20.4225 25.1801 20.5984C25.1149 20.7608 25.0237 20.9097 24.9063 21.0315L17.5269 28.6916C17.4096 28.8134 17.2662 28.9217 17.1097 28.9894C16.9402 29.0571 16.7707 29.0977 16.6012 29.0977C16.4318 29.0977 16.2492 29.0706 16.0928 29.0029C15.9363 28.9352 15.7929 28.827 15.6625 28.7052C15.5452 28.5834 15.4539 28.421 15.3887 28.2586C15.3105 28.0962 15.2844 27.9202 15.2844 27.7307C15.2844 27.5548 15.3235 27.3789 15.3887 27.2165C15.4539 27.054 15.5582 26.9052 15.6886 26.7698L22.1423 20.0706L20.9168 18.8119L15.6886 13.3713Z" fill="#FFF9FF"/>
</svg>
