<svg width="40" height="40" viewBox="0 0 40 40" fill="none" xmlns="http://www.w3.org/2000/svg">
<circle cx="20" cy="20" r="20" transform="rotate(-180 20 20)" fill="#53B175"/>
<path d="M24.3114 26.6287C24.5461 26.8858 24.6765 27.2241 24.6634 27.576C24.6634 27.9279 24.533 28.2527 24.2853 28.5099C24.0506 28.7535 23.7247 28.9023 23.3857 28.9023C23.0467 28.9023 22.7208 28.7805 22.4731 28.5369L15.0937 20.8768C14.9763 20.755 14.8851 20.6061 14.8199 20.4437C14.7547 20.2813 14.7156 20.1054 14.7156 19.9294C14.7156 19.7535 14.7547 19.5775 14.8199 19.4016C14.8851 19.2392 14.9763 19.0903 15.0937 18.9685L22.4731 11.3084C22.5904 11.1866 22.7338 11.0783 22.8903 11.0106C23.0598 10.9429 23.2293 10.9023 23.3988 10.9023C23.5682 10.9023 23.7508 10.9294 23.9072 10.9971C24.0637 11.0648 24.2071 11.173 24.3375 11.2948C24.4548 11.4166 24.5461 11.579 24.6113 11.7414C24.6895 11.9038 24.7156 12.0798 24.7156 12.2693C24.7156 12.4452 24.6765 12.6211 24.6113 12.7835C24.5461 12.946 24.4418 13.0948 24.3114 13.2302L17.8577 19.9294L19.0832 21.1881L24.3114 26.6287Z" fill="#FFF9FF"/>
</svg>
