<svg width="12" height="8" viewBox="0 0 12 8" fill="none" xmlns="http://www.w3.org/2000/svg">
<path d="M10.4842 0.78292C10.6556 0.618644 10.8812 0.52738 11.1158 0.536506C11.3504 0.536506 11.5669 0.627771 11.7383 0.801173C11.9008 0.96545 12 1.19361 12 1.4309C12 1.66819 11.9188 1.89635 11.7564 2.06975L6.64962 7.23533C6.56842 7.31747 6.46917 7.38136 6.3609 7.42699C6.25263 7.47262 6.13534 7.5 6.01805 7.5C5.90075 7.5 5.78346 7.47262 5.66617 7.42699C5.5579 7.38136 5.45865 7.31747 5.37744 7.23533L0.270677 2.06975C0.189474 1.98761 0.117293 1.88722 0.0721805 1.77771C0.0270677 1.65906 7.10673e-08 1.54042 7.24821e-08 1.42177C7.38969e-08 1.30313 0.0180452 1.17536 0.063158 1.06584C0.108271 0.956323 0.180451 0.855932 0.261654 0.764668C0.342857 0.682529 0.451128 0.618644 0.559399 0.573012C0.667669 0.518253 0.784962 0.5 0.911278 0.5C1.02857 0.5 1.14586 0.52738 1.25414 0.573012C1.36241 0.618644 1.46165 0.691656 1.55188 0.78292L6.01805 5.30052L6.85714 4.44263L10.4842 0.78292Z" fill="#7C7C7C"/>
</svg>
