<svg width="22" height="20" viewBox="0 0 22 20" fill="none" xmlns="http://www.w3.org/2000/svg">
<path d="M8.53599 19.5629C7.88744 19.5629 7.26545 19.3053 6.80686 18.8467C6.34826 18.3881 6.09063 17.7661 6.09063 17.1175C6.09063 16.469 6.34826 15.847 6.80686 15.3884C7.26545 14.9298 7.88744 14.6722 8.53599 14.6722C9.18454 14.6722 9.80653 14.9298 10.2651 15.3884C10.7237 15.847 10.9814 16.469 10.9814 17.1175C10.9814 17.7661 10.7237 18.3881 10.2651 18.8467C9.80653 19.3053 9.18454 19.5629 8.53599 19.5629ZM17.0948 19.5629C16.4462 19.5629 15.8242 19.3053 15.3656 18.8467C14.907 18.3881 14.6494 17.7661 14.6494 17.1175C14.6494 16.469 14.907 15.847 15.3656 15.3884C15.8242 14.9298 16.4462 14.6722 17.0948 14.6722C17.7433 14.6722 18.3653 14.9298 18.8239 15.3884C19.2825 15.847 19.5401 16.469 19.5401 17.1175C19.5401 17.7661 19.2825 18.3881 18.8239 18.8467C18.3653 19.3053 17.7433 19.5629 17.0948 19.5629ZM1.15344 2.35122C0.84821 2.34137 0.558776 2.2132 0.346344 1.99381C0.133912 1.77441 0.0151367 1.481 0.0151367 1.17561C0.0151367 0.870221 0.133912 0.576806 0.346344 0.357411C0.558776 0.138017 0.84821 0.0098448 1.15344 0L2.56075 0C3.6636 0 4.6173 0.765399 4.85694 1.84136L6.38896 8.73973C6.62861 9.81569 7.5823 10.5811 8.68516 10.5811H17.8699L19.6331 3.52621H8.20709C7.90473 3.51242 7.61933 3.3826 7.41025 3.16375C7.20116 2.94491 7.08449 2.65389 7.08449 2.35122C7.08449 2.04855 7.20116 1.75753 7.41025 1.53868C7.61933 1.31984 7.90473 1.19002 8.20709 1.17622H19.6331C19.9905 1.17611 20.3432 1.2575 20.6645 1.4142C20.9857 1.57089 21.267 1.79876 21.487 2.0805C21.707 2.36223 21.8598 2.6904 21.9339 3.04007C22.008 3.38974 22.0014 3.7517 21.9146 4.09843L20.1515 11.1509C20.0244 11.6597 19.7308 12.1115 19.3173 12.4343C18.9039 12.7571 18.3945 12.9324 17.8699 12.9323H8.68516C7.61506 12.9325 6.57692 12.5676 5.74218 11.898C4.90744 11.2285 4.32604 10.2942 4.09399 9.24959L2.56075 2.35122H1.15344Z" fill="#181725"/>
</svg>
