<svg width="18" height="20" viewBox="0 0 18 20" fill="none" xmlns="http://www.w3.org/2000/svg">
<path d="M17.5287 13.2069L15.7269 11.397V6.93728C15.7508 5.2812 15.1742 3.67239 14.1033 2.40789C13.0325 1.14339 11.5398 0.308613 9.90092 0.0576935C8.94976 -0.0674318 7.98282 0.0115112 7.06463 0.289255C6.14643 0.566999 5.29808 1.03716 4.5762 1.66836C3.85432 2.29956 3.27549 3.07729 2.87835 3.94965C2.4812 4.82202 2.27487 5.76896 2.27312 6.72729V11.397L0.471278 13.2069C0.244952 13.4368 0.0914728 13.7281 0.0300267 14.0446C-0.0314194 14.3612 0.00189395 14.6887 0.125802 14.9864C0.24971 15.2841 0.458715 15.5387 0.72669 15.7184C0.994664 15.8981 1.30972 15.9949 1.63247 15.9967H4.9959V16.3367C5.04266 17.3519 5.49036 18.3071 6.2409 18.9931C6.99144 19.6791 7.98361 20.0399 9 19.9965C10.0164 20.0399 11.0086 19.6791 11.7591 18.9931C12.5096 18.3071 12.9573 17.3519 13.0041 16.3367V15.9967H16.3675C16.6903 15.9949 17.0053 15.8981 17.2733 15.7184C17.5413 15.5387 17.7503 15.2841 17.8742 14.9864C17.9981 14.6887 18.0314 14.3612 17.97 14.0446C17.9085 13.7281 17.755 13.4368 17.5287 13.2069ZM11.002 16.3367C10.9465 16.8177 10.7074 17.2587 10.3344 17.5679C9.96148 17.8771 9.48348 18.0307 9 17.9966C8.51652 18.0307 8.03852 17.8771 7.66556 17.5679C7.29261 17.2587 7.05347 16.8177 6.99795 16.3367V15.9967H11.002V16.3367ZM2.50336 13.9969L3.68456 12.8169C3.87192 12.6309 4.02057 12.4096 4.12193 12.1659C4.2233 11.9222 4.27538 11.6609 4.27517 11.397V6.72729C4.27571 6.05273 4.4207 5.3861 4.7004 4.77212C4.98009 4.15814 5.38803 3.61103 5.89683 3.16751C6.39876 2.71322 6.99352 2.3733 7.63995 2.1713C8.28638 1.96929 8.96903 1.91002 9.64065 1.99758C10.7983 2.18534 11.8491 2.78454 12.5996 3.68485C13.35 4.58517 13.7496 5.72599 13.7248 6.89728V11.397C13.7233 11.6602 13.7738 11.9211 13.8734 12.1648C13.9731 12.4084 14.1199 12.6301 14.3054 12.8169L15.4966 13.9969H2.50336Z" fill="#181725"/>
</svg>
